<svg class="animation-icon" width="38" height="18" viewBox="0 0 38 18" fill="none" xmlns="http://www.w3.org/2000/svg">
  <path d="M37.4687 7L35.5375 2.7375C35.1966 1.99607 34.6506 1.36778 33.9638 0.926955C33.2771 0.48613 32.4785 0.251214 31.6625 0.25H3.95625C2.9736 0.250993 2.03147 0.64179 1.33663 1.33663C0.64179 2.03147 0.250993 2.9736 0.25 3.95625V13.2187C0.25 13.7575 0.464006 14.2741 0.844939 14.6551C1.22587 15.036 1.74253 15.25 2.28125 15.25H5.3125C5.45595 15.9564 5.83921 16.5915 6.39734 17.0477C6.95547 17.5039 7.65415 17.7531 8.375 17.7531C9.09585 17.7531 9.79453 17.5039 10.3527 17.0477C10.9108 16.5915 11.2941 15.9564 11.4375 15.25H26.5625C26.7059 15.9564 27.0892 16.5915 27.6473 17.0477C28.2055 17.5039 28.9042 17.7531 29.625 17.7531C30.3458 17.7531 31.0445 17.5039 31.6027 17.0477C32.1608 16.5915 32.5441 15.9564 32.6875 15.25H36.0125C36.3883 15.2498 36.754 15.128 37.0548 14.9026C37.3556 14.6773 37.5754 14.3606 37.6812 14C37.7264 13.8414 37.7495 13.6774 37.75 13.5125V8.29375C37.7497 7.84736 37.6538 7.40621 37.4687 7V7ZM3.375 7.75C3.20924 7.75 3.05027 7.68415 2.93306 7.56694C2.81585 7.44973 2.75 7.29076 2.75 7.125V2.125C2.75 1.95924 2.81585 1.80027 2.93306 1.68306C3.05027 1.56585 3.20924 1.5 3.375 1.5H7.75C7.91576 1.5 8.07473 1.56585 8.19194 1.68306C8.30915 1.80027 8.375 1.95924 8.375 2.125V7.125C8.375 7.29076 8.30915 7.44973 8.19194 7.56694C8.07473 7.68415 7.91576 7.75 7.75 7.75H3.375ZM8.375 16.5C8.00416 16.5 7.64165 16.39 7.33331 16.184C7.02496 15.978 6.78464 15.6851 6.64273 15.3425C6.50081 14.9999 6.46368 14.6229 6.53603 14.2592C6.60837 13.8955 6.78695 13.5614 7.04917 13.2992C7.3114 13.037 7.64549 12.8584 8.00921 12.786C8.37292 12.7137 8.74992 12.7508 9.09253 12.8927C9.43514 13.0346 9.72798 13.275 9.93401 13.5833C10.14 13.8916 10.25 14.2542 10.25 14.625C10.2485 15.1218 10.0505 15.5979 9.69919 15.9492C9.34788 16.3005 8.87182 16.4985 8.375 16.5V16.5ZM15.25 7.125C15.25 7.29076 15.1842 7.44973 15.0669 7.56694C14.9497 7.68415 14.7908 7.75 14.625 7.75H10.25C10.0842 7.75 9.92527 7.68415 9.80806 7.56694C9.69085 7.44973 9.625 7.29076 9.625 7.125V2.125C9.625 1.95924 9.69085 1.80027 9.80806 1.68306C9.92527 1.56585 10.0842 1.5 10.25 1.5H14.625C14.7908 1.5 14.9497 1.56585 15.0669 1.68306C15.1842 1.80027 15.25 1.95924 15.25 2.125V7.125ZM22.125 7.125C22.125 7.29076 22.0592 7.44973 21.9419 7.56694C21.8247 7.68415 21.6658 7.75 21.5 7.75H17.125C16.9592 7.75 16.8003 7.68415 16.6831 7.56694C16.5658 7.44973 16.5 7.29076 16.5 7.125V2.125C16.5 1.95924 16.5658 1.80027 16.6831 1.68306C16.8003 1.56585 16.9592 1.5 17.125 1.5H21.5C21.6658 1.5 21.8247 1.56585 21.9419 1.68306C22.0592 1.80027 22.125 1.95924 22.125 2.125V7.125ZM24 7.75C23.8342 7.75 23.6753 7.68415 23.5581 7.56694C23.4408 7.44973 23.375 7.29076 23.375 7.125V2.125C23.375 1.95924 23.4408 1.80027 23.5581 1.68306C23.6753 1.56585 23.8342 1.5 24 1.5H28.375C28.5408 1.5 28.6997 1.56585 28.8169 1.68306C28.9342 1.80027 29 1.95924 29 2.125V7.125C29 7.29076 28.9342 7.44973 28.8169 7.56694C28.6997 7.68415 28.5408 7.75 28.375 7.75H24ZM29.625 16.5C29.2542 16.5 28.8916 16.39 28.5833 16.184C28.275 15.978 28.0346 15.6851 27.8927 15.3425C27.7508 14.9999 27.7137 14.6229 27.786 14.2592C27.8584 13.8955 28.037 13.5614 28.2992 13.2992C28.5614 13.037 28.8955 12.8584 29.2592 12.786C29.6229 12.7137 29.9999 12.7508 30.3425 12.8927C30.6851 13.0346 30.978 13.275 31.184 13.5833C31.39 13.8916 31.5 14.2542 31.5 14.625C31.4985 15.1218 31.3005 15.5979 30.9492 15.9492C30.5979 16.3005 30.1218 16.4985 29.625 16.5V16.5ZM30.825 7.75C30.6686 7.73601 30.523 7.66422 30.4167 7.54865C30.3104 7.43308 30.2509 7.28203 30.25 7.125V2.11937C30.25 1.95511 30.3153 1.79757 30.4314 1.68141C30.5476 1.56525 30.7051 1.5 30.8694 1.5H31.6625C32.2387 1.50148 32.8025 1.66757 33.2875 1.97872C33.7725 2.28986 34.1585 2.7331 34.4 3.25625L36.3312 7.51875C36.4321 7.74092 36.4874 7.98108 36.4938 8.225L30.825 7.75Z" fill="#606060"/>
</svg>
