<svg class="animation-icon" width="90" height="18" viewBox="0 0 90 18" fill="none" xmlns="http://www.w3.org/2000/svg">
  <path d="M88.0384 10.2732C86.9851 8.38913 84.6856 5.54869 82.1171 5.54869H69.7941C69.7941 5.32518 69.6022 5.32518 69.6022 5.32518H68.9326C68.9326 5.00672 68.1494 4.99089 68.1494 5.34199H67.4036C67.4036 5.28859 67.3829 5.23518 67.3423 5.19364L65.8014 3.65276L69.7684 0.976497C69.8465 0.925069 69.8801 0.830124 69.8534 0.742102C69.8257 0.65408 69.7446 0.59375 69.6536 0.59375H68.3976C68.2819 0.59375 68.1869 0.686717 68.1869 0.802431C68.1869 0.918146 68.2819 1.01111 68.3976 1.01111H68.9673L65.3584 3.44705C65.3049 3.48166 65.2723 3.53804 65.2674 3.60034C65.2604 3.66265 65.2822 3.72496 65.3267 3.76848L66.9042 5.34496C66.651 5.37364 66.6174 5.70694 66.6174 5.70694H65.9003C65.6115 5.70694 65.5661 6.04122 65.5661 6.04122H62.1807C62.1807 5.7376 62.1015 5.59419 61.8454 5.59419H47.6887C47.3208 5.59419 47.1269 5.75441 47.1269 6.04122H45.5109H45.4792H43.3736C43.3736 5.75441 43.1768 5.59419 42.8099 5.59419H28.6512C28.3961 5.59419 28.3159 5.7376 28.3159 6.04122H24.9315C24.9315 6.04122 24.8851 5.70694 24.5973 5.70694H23.8792C23.8792 5.70694 23.8466 5.37364 23.5934 5.34496L25.1699 3.76848C25.2134 3.72496 25.2362 3.66265 25.2312 3.60034C25.2253 3.53902 25.1907 3.48166 25.1402 3.44705L21.5293 1.01111H22.1C22.2157 1.01111 22.3097 0.917157 22.3097 0.802431C22.3097 0.686717 22.2157 0.59375 22.1 0.59375H20.844C20.752 0.59375 20.6709 0.65408 20.6432 0.742102C20.6165 0.830124 20.6501 0.925069 20.7263 0.976497L24.6952 3.65276L23.1543 5.19364C23.1137 5.23518 23.093 5.28859 23.093 5.34199H22.3473C22.3473 4.99089 21.565 5.00672 21.565 5.32518H20.8944C20.8944 5.32518 20.7025 5.32518 20.7025 5.54869H8.38141C5.81196 5.54869 3.51349 8.38913 2.4602 10.2732C1.4069 12.1563 0.657232 14.615 1.13591 15.6851C1.6136 16.7532 3.28998 17.3248 4.77448 17.3248H45.4792H45.5109H85.7241C87.2086 17.3248 88.885 16.7532 89.3636 15.6851C89.8413 14.614 89.0907 12.1563 88.0384 10.2732ZM5.95536 8.19529C5.97415 8.18738 5.988 8.18144 6.0058 8.17353C5.69921 9.08935 4.73196 11.0674 1.73723 13.5716C2.67185 9.28913 5.95536 8.19529 5.95536 8.19529ZM1.98448 15.5852C1.7758 15.5852 1.60569 15.3132 1.60569 14.9769C1.60569 14.6377 1.7758 14.3637 1.98448 14.3637C2.19316 14.3637 2.36327 14.6377 2.36327 14.9769C2.36327 15.3122 2.19415 15.5852 1.98448 15.5852ZM6.64174 13.9939H2.25251C2.19811 13.9939 2.15064 13.9909 2.10316 13.9889C5.29272 11.2889 6.26987 9.12595 6.56459 8.1399C6.62987 8.24771 6.64174 8.3565 6.64174 8.3565V13.9939ZM10.6156 15.2094C10.6156 15.3983 10.4623 15.5516 10.2734 15.5516H7.93833C7.74943 15.5516 7.59613 15.3992 7.59613 15.2094V7.6899C7.59613 7.50199 7.74943 7.34771 7.93833 7.34771H10.2734C10.4613 7.34771 10.6156 7.50199 10.6156 7.6899V15.2094ZM16.2955 16.3803C16.2955 16.5683 16.1412 16.7235 15.9533 16.7235H11.0696C10.8817 16.7235 10.7284 16.5692 10.7284 16.3803V7.68891C10.7284 7.501 10.8807 7.34672 11.0696 7.34672H15.9533C16.1412 7.34672 16.2955 7.501 16.2955 7.68891V16.3803ZM24.9048 15.2094C24.9048 15.3983 24.7515 15.5516 24.5626 15.5516H16.7119C16.524 15.5516 16.3697 15.3992 16.3697 15.2094V7.6899C16.3697 7.50199 16.524 7.34771 16.7119 7.34771H24.5626C24.7515 7.34771 24.9048 7.50199 24.9048 7.6899V15.2094ZM33.0968 15.2094C33.0968 15.3983 32.9425 15.5516 32.7546 15.5516H28.9657C28.7778 15.5516 28.6245 15.3992 28.6245 15.2094V7.6899C28.6245 7.50199 28.7778 7.34771 28.9657 7.34771H30.8607H32.7556C32.9435 7.34771 33.0978 7.50199 33.0978 7.6899L33.0968 15.2094ZM38.7431 16.3803C38.7431 16.5683 38.5898 16.7235 38.4019 16.7235H33.5181C33.3302 16.7235 33.1759 16.5692 33.1759 16.3803V7.68891C33.1759 7.501 33.3302 7.34672 33.5181 7.34672H38.4019C38.5898 7.34672 38.7431 7.501 38.7431 7.68891V16.3803ZM43.3321 15.2094C43.3321 15.3983 43.1788 15.5516 42.9899 15.5516H39.202C39.0131 15.5516 38.8598 15.3992 38.8598 15.2094V7.6899C38.8598 7.50199 39.0131 7.34771 39.202 7.34771H42.9909C43.1798 7.34771 43.3331 7.50199 43.3331 7.6899V15.2094H43.3321ZM51.6358 15.2094C51.6358 15.3983 51.4845 15.5516 51.2956 15.5516H47.5067C47.3178 15.5516 47.1635 15.3992 47.1635 15.2094V7.6899C47.1635 7.50199 47.3168 7.34771 47.5067 7.34771H51.2956C51.4835 7.34771 51.6358 7.50199 51.6358 7.6899V15.2094ZM57.3207 16.3803C57.3207 16.5683 57.1674 16.7235 56.9785 16.7235H52.0947C51.9068 16.7235 51.7545 16.5692 51.7545 16.3803V7.68891C51.7545 7.501 51.9058 7.34672 52.0947 7.34672H56.9785C57.1664 7.34672 57.3207 7.501 57.3207 7.68891V16.3803ZM61.8741 15.2094C61.8741 15.3983 61.7208 15.5516 61.5309 15.5516H57.742C57.5541 15.5516 57.4008 15.3992 57.4008 15.2094V7.6899C57.4008 7.50199 57.5531 7.34771 57.742 7.34771H61.5309C61.7198 7.34771 61.8741 7.50199 61.8741 7.6899V15.2094ZM84.5412 8.19529C84.5412 8.19529 87.8247 9.28913 88.7593 13.5716C85.7636 11.0674 84.7964 9.08935 84.4928 8.17353C84.5086 8.18045 84.5234 8.18738 84.5412 8.19529ZM74.1289 15.2094C74.1289 15.3983 73.9746 15.5516 73.7847 15.5516H65.934C65.746 15.5516 65.5918 15.3992 65.5918 15.2094V7.6899C65.5918 7.50199 65.7451 7.34771 65.934 7.34771H73.7847C73.9736 7.34771 74.1289 7.50199 74.1289 7.6899V15.2094ZM79.7682 16.3803C79.7682 16.5683 79.615 16.7235 79.427 16.7235H74.5433C74.3554 16.7235 74.2021 16.5692 74.2021 16.3803V7.68891C74.2021 7.501 74.3544 7.34672 74.5433 7.34672H79.427C79.614 7.34672 79.7682 7.501 79.7682 7.68891V16.3803ZM82.9004 15.2094C82.9004 15.3983 82.7481 15.5516 82.5583 15.5516H80.2222C80.0343 15.5516 79.881 15.3992 79.881 15.2094V7.6899C79.881 7.50199 80.0333 7.34771 80.2222 7.34771H82.5583C82.7472 7.34771 82.9004 7.50199 82.9004 7.6899V15.2094ZM83.8558 13.9939V8.3565C83.8558 8.3565 83.8677 8.24771 83.932 8.1399C84.2267 9.12595 85.2038 11.2889 88.3934 13.9889C88.3469 13.9909 88.2985 13.9939 88.2461 13.9939H83.8558ZM88.4636 15.5852C88.2569 15.5852 88.0858 15.3132 88.0858 14.9769C88.0858 14.6377 88.2569 14.3637 88.4636 14.3637C88.6753 14.3637 88.8434 14.6377 88.8434 14.9769C88.8434 15.3122 88.6753 15.5852 88.4636 15.5852Z" fill="#606060" stroke="#606060" stroke-width="0.197802"/>
</svg>
